<svg data-v-6805eed4="" version="1.0" xmlns="http://www.w3.org/2000/svg" xmlns:xlink="http://www.w3.org/1999/xlink" width="100%" height="100%" viewBox="0 0 340.000000 250.000000" preserveAspectRatio="xMidYMid meet" color-interpolation-filters="sRGB" style="margin: auto;">   <g data-v-6805eed4="" fill="#333" class="j-b-g-c iconbgsvg" mask="url(#3e375742-065b-4582-8c18-de49035a6cba)" transform="translate(82.5,68.75161124904866)"><g data-d="container" transform="translate(0,0)"><g><rect fill="#333" fill-opacity="0" stroke-width="2" x="0" y="0" width="175" height="112.49677500000001" class="image-rect"></rect> <svg x="0" y="0" width="175" height="112.49677500000001" filtersec="colorsb9393680673" class="image-svg-container primary" style="overflow: visible;"><svg xmlns="http://www.w3.org/2000/svg" xlink="http://www.w3.org/1999/xlink" viewBox="0.0004 0.00106 171.94513 110.53306" style="overflow: visible;"><g transform="scale(1, 1) skewX(0)"><defs><linearGradient id="ae03e57c8-5dfa-43b4-aa34-c6ca52929306" x1="-573.57" y1="-329.19" x2="-686.29" y2="-233.6" gradientTransform="rotate(130.3 -354.604 56.288)" gradientUnits="userSpaceOnUse"><stop offset="0" stop-color="#f69b88"></stop><stop offset="1" stop-color="#ffbaba"></stop></linearGradient><linearGradient id="b07feded5-d90e-481c-a7ec-2eb271b456c4" x1="12.12" y1="60.42" x2="238.99" y2="60.42" gradientUnits="userSpaceOnUse"><stop offset="0" stop-color="#ffbaba" stop-opacity="0"></stop><stop offset="1" stop-color="#ffbaba"></stop></linearGradient><linearGradient id="cf19134db-be0a-43f6-a930-5d5aebd4a77b" x1="106.11" y1="332.06" x2="-86.13" y2="241.07" gradientTransform="rotate(154.67 90.843 185.137)" gradientUnits="userSpaceOnUse"><stop offset="0" stop-color="#f69b88"></stop><stop offset=".09" stop-color="#f69b88" stop-opacity=".96"></stop><stop offset=".23" stop-color="#f69b88" stop-opacity=".86"></stop><stop offset=".41" stop-color="#f69b88" stop-opacity=".7"></stop><stop offset=".62" stop-color="#f69b88" stop-opacity=".48"></stop><stop offset=".85" stop-color="#f69b88" stop-opacity=".2"></stop><stop offset="1" stop-color="#f69b88" stop-opacity="0"></stop></linearGradient><linearGradient id="d2c5b909a-057f-4b88-b305-430a9fe9b526" x1="101.97" y1="40.8" x2="92.19" y2="14.77" gradientTransform="rotate(-24.39 35.845 137.352)" href="#ae03e57c8-5dfa-43b4-aa34-c6ca52929306"></linearGradient></defs><path d="M148.79 44.51c16.75 21.07 20.52 55.38-6 60.68-22.12 4.42-37.93-18.26-61.68-8C28.42 120.11-4.77 75.14.56 52.46c8-33.82 54.72-20.89 56.71-35.81 4.57-34.3 60.73-10.94 91.52 27.86z" opacity=".8" fill="url(#ae03e57c8-5dfa-43b4-aa34-c6ca52929306)"></path><path d="M11.5 65.4C3.57 45.56 22.86 14.85 59.26 17.65c38.79 3 78.59 3 100.47 31.83 17 22.42 24.87 56.7-35.81 53.72-47.37-2.33-94.51 6.96-112.42-37.8z" opacity=".57" fill="url(#b07feded5-d90e-481c-a7ec-2eb271b456c4)"></path><path d="M153.77 27.4c14.11 16 18.24 61.84-17.91 66.85s-75.61 26.86-106.45 10C4.74 90.67.14 47.87 56.27 24.61c43.82-18.16 69.64-28.85 97.5 2.79z" opacity=".49" fill="url(#cf19134db-be0a-43f6-a930-5d5aebd4a77b)"></path><circle cx="44.79" cy="10.7" r="9.95" fill="url(#d2c5b909a-057f-4b88-b305-430a9fe9b526)"></circle></g></svg></svg> <!----></g></g> <g data-d="icon-text" hollow-target="textRect" transform="translate(37.5,21.849437713623047)"><g data-d="icon" class="iconsvg-imagesvg" transform="translate(0,0)"><g><!----> <svg filter="url(#colors9108505479)" x="0" y="0" width="100" height="68.79802962443156" filtersec="colorsf6588089102" class="image-svg-svg primary" style="overflow: visible;"><svg xmlns="http://www.w3.org/2000/svg" xmlns:xlink="http://www.w3.org/1999/xlink" viewBox="-0.0020003318786621094 0.00046539306640625 83.83052062988281 57.67363739013672"><path transform="translate(-6.5520000000000005 57.02766101694916)" d="M37.66 0L15.55 0Q6.55 0 6.55-9.00L6.55-9.00L6.55-51.98Q6.55-57.67 12.17-56.88L12.17-56.88Q17.71-56.09 17.50-50.54L17.50-50.54L15.55-7.85L37.66-9.58Q42.62-10.01 42.62-5.04L42.62-5.04Q42.62 0 37.66 0L37.66 0ZM50.54 0.58L50.54 0.58Q45.58-0.07 48.24-4.18L48.24-4.18L62.93-27.72L48.31-51.77Q45.72-56.09 50.76-56.74L50.76-56.74Q55.73-57.38 58.46-53.14L58.46-53.14L68.76-37.01L79.56-54.22Q81.58-57.67 85.54-56.88L85.54-56.88Q89.42-56.09 87.41-52.78L87.41-52.78L73.58-29.45L89.21-5.11Q92.52-0.07 86.47 0.50L86.47 0.50L85.82 0.50Q80.42 0.94 77.47-3.74L77.47-3.74L67.75-19.73L57.96-3.17Q55.44 1.15 50.54 0.58Z"></path></svg></svg> <defs><filter id="colors9108505479"><feColorMatrix type="matrix" values="0 0 0 0 0.19921875  0 0 0 0 0.19921875  0 0 0 0 0.19921875  0 0 0 1 0" class="icon-fecolormatrix"></feColorMatrix></filter> <filter id="colorsf6588089102"><feColorMatrix type="matrix" values="0 0 0 0 0.99609375  0 0 0 0 0.99609375  0 0 0 0 0.99609375  0 0 0 1 0" class="icon-fecolormatrix"></feColorMatrix></filter> <filter id="colorsb9195092520"><feColorMatrix type="matrix" values="0 0 0 0 0  0 0 0 0 0  0 0 0 0 0  0 0 0 1 0" class="icon-fecolormatrix"></feColorMatrix></filter></defs></g></g> <g data-d="text" transform="translate(50,75.79790496826172)"><g data-gra="path-name" fill-rule="" class="tp-name iconsvg-namesvg"><g transform="scale(1)"><g><path d="" transform="translate(0, 0)"></path></g> <!----> <!----> <!----> <!----> <!----> <!----> <!----></g></g> <!----></g></g></g><defs><filter id="582727e6-5095-41be-8390-4a48c43b6b07">
          <feColorMatrix type="matrix" values="0 0 0 0 0  0 0 0 0 0  0 0 0 0 0  0 0 0 1 0"></feColorMatrix>
          </filter><filter id="e31d04a0-5b51-41b0-a409-02da486bb057">
          <feColorMatrix type="matrix" values="0 0 0 0 0.99609375  0 0 0 0 0.99609375  0 0 0 0 0.99609375  0 0 0 1 0"></feColorMatrix>
          </filter></defs><mask id="3e375742-065b-4582-8c18-de49035a6cba"><g data-v-6805eed4="" fill="#333" class="j-b-g-c iconbgsvg"><g data-d="container" transform="translate(0,0)"><g><rect fill="#333" fill-opacity="0" stroke-width="2" x="0" y="0" width="175" height="112.49677500000001" class="image-rect" stroke="#000"></rect> <svg x="0" y="0" width="175" height="112.49677500000001" filtersec="colorsb9393680673" class="image-svg-container primary" style="overflow: visible;" filter="url(#e31d04a0-5b51-41b0-a409-02da486bb057)"><svg xmlns="http://www.w3.org/2000/svg" xlink="http://www.w3.org/1999/xlink" viewBox="0.0004 0.00106 171.94513 110.53306" style="overflow: visible;"><g transform="scale(1, 1) skewX(0)"><defs><linearGradient id="ae03e57c8-5dfa-43b4-aa34-c6ca52929306" x1="-573.57" y1="-329.19" x2="-686.29" y2="-233.6" gradientTransform="rotate(130.3 -354.604 56.288)" gradientUnits="userSpaceOnUse"><stop offset="0" stop-color="#f69b88"></stop><stop offset="1" stop-color="#ffbaba"></stop></linearGradient><linearGradient id="b07feded5-d90e-481c-a7ec-2eb271b456c4" x1="12.12" y1="60.42" x2="238.99" y2="60.42" gradientUnits="userSpaceOnUse"><stop offset="0" stop-color="#ffbaba" stop-opacity="0"></stop><stop offset="1" stop-color="#ffbaba"></stop></linearGradient><linearGradient id="cf19134db-be0a-43f6-a930-5d5aebd4a77b" x1="106.11" y1="332.06" x2="-86.13" y2="241.07" gradientTransform="rotate(154.67 90.843 185.137)" gradientUnits="userSpaceOnUse"><stop offset="0" stop-color="#f69b88"></stop><stop offset=".09" stop-color="#f69b88" stop-opacity=".96"></stop><stop offset=".23" stop-color="#f69b88" stop-opacity=".86"></stop><stop offset=".41" stop-color="#f69b88" stop-opacity=".7"></stop><stop offset=".62" stop-color="#f69b88" stop-opacity=".48"></stop><stop offset=".85" stop-color="#f69b88" stop-opacity=".2"></stop><stop offset="1" stop-color="#f69b88" stop-opacity="0"></stop></linearGradient><linearGradient id="d2c5b909a-057f-4b88-b305-430a9fe9b526" x1="101.97" y1="40.8" x2="92.19" y2="14.77" gradientTransform="rotate(-24.39 35.845 137.352)" href="#ae03e57c8-5dfa-43b4-aa34-c6ca52929306"></linearGradient></defs><path d="M148.79 44.51c16.75 21.07 20.52 55.38-6 60.68-22.12 4.42-37.93-18.26-61.68-8C28.42 120.11-4.77 75.14.56 52.46c8-33.82 54.72-20.89 56.71-35.81 4.57-34.3 60.73-10.94 91.52 27.86z" opacity=".8" fill="url(#ae03e57c8-5dfa-43b4-aa34-c6ca52929306)"></path><path d="M11.5 65.4C3.57 45.56 22.86 14.85 59.26 17.65c38.79 3 78.59 3 100.47 31.83 17 22.42 24.87 56.7-35.81 53.72-47.37-2.33-94.51 6.96-112.42-37.8z" opacity=".57" fill="url(#b07feded5-d90e-481c-a7ec-2eb271b456c4)"></path><path d="M153.77 27.4c14.11 16 18.24 61.84-17.91 66.85s-75.61 26.86-106.45 10C4.74 90.67.14 47.87 56.27 24.61c43.82-18.16 69.64-28.85 97.5 2.79z" opacity=".49" fill="url(#cf19134db-be0a-43f6-a930-5d5aebd4a77b)"></path><circle cx="44.79" cy="10.7" r="9.95" fill="url(#d2c5b909a-057f-4b88-b305-430a9fe9b526)"></circle></g></svg></svg> <!----></g></g> <g data-d="icon-text" hollow-target="textRect" transform="translate(37.5,21.849437713623047)" filter="url(#582727e6-5095-41be-8390-4a48c43b6b07)"><g data-d="icon" class="iconsvg-imagesvg" transform="translate(0,0)"><g><!----> <svg filter="url(#colors9108505479)" x="0" y="0" width="100" height="68.79802962443156" filtersec="colorsf6588089102" class="image-svg-svg primary" style="overflow: visible;"><svg xmlns="http://www.w3.org/2000/svg" xmlns:xlink="http://www.w3.org/1999/xlink" viewBox="-0.0020003318786621094 0.00046539306640625 83.83052062988281 57.67363739013672" style="overflow: visible;"><path transform="translate(-6.5520000000000005 57.02766101694916)" d="M37.66 0L15.55 0Q6.55 0 6.55-9.00L6.55-9.00L6.55-51.98Q6.55-57.67 12.17-56.88L12.17-56.88Q17.71-56.09 17.50-50.54L17.50-50.54L15.55-7.85L37.66-9.58Q42.62-10.01 42.62-5.04L42.62-5.04Q42.62 0 37.66 0L37.66 0ZM50.54 0.58L50.54 0.58Q45.58-0.07 48.24-4.18L48.24-4.18L62.93-27.72L48.31-51.77Q45.72-56.09 50.76-56.74L50.76-56.74Q55.73-57.38 58.46-53.14L58.46-53.14L68.76-37.01L79.56-54.22Q81.58-57.67 85.54-56.88L85.54-56.88Q89.42-56.09 87.41-52.78L87.41-52.78L73.58-29.45L89.21-5.11Q92.52-0.07 86.47 0.50L86.47 0.50L85.82 0.50Q80.42 0.94 77.47-3.74L77.47-3.74L67.75-19.73L57.96-3.17Q55.44 1.15 50.54 0.58Z"></path></svg></svg> <defs><filter id="colors9108505479"><feColorMatrix type="matrix" values="0 0 0 0 0.19921875  0 0 0 0 0.19921875  0 0 0 0 0.19921875  0 0 0 1 0" class="icon-fecolormatrix"></feColorMatrix></filter> <filter id="colorsf6588089102"><feColorMatrix type="matrix" values="0 0 0 0 0.99609375  0 0 0 0 0.99609375  0 0 0 0 0.99609375  0 0 0 1 0" class="icon-fecolormatrix"></feColorMatrix></filter> <filter id="colorsb9195092520"><feColorMatrix type="matrix" values="0 0 0 0 0  0 0 0 0 0  0 0 0 0 0  0 0 0 1 0" class="icon-fecolormatrix"></feColorMatrix></filter></defs></g></g> <g data-d="text" transform="translate(50,75.79790496826172)"><g data-gra="path-name" fill-rule="" class="tp-name iconsvg-namesvg"><g transform="scale(1)"><g><path d="" transform="translate(0, 0)"></path></g> <!----> <!----> <!----> <!----> <!----> <!----> <!----></g></g> <!----></g></g></g></mask><defs v-gra="od"></defs></svg>