<svg data-v-6805eed4="" version="1.0" xmlns="http://www.w3.org/2000/svg" xmlns:xlink="http://www.w3.org/1999/xlink" width="100%" height="100%" viewBox="0 0 340.000000 250.000000" preserveAspectRatio="xMidYMid meet" color-interpolation-filters="sRGB" style="margin: auto;">   <g data-v-6805eed4="" fill="#333" class="j-b-g-c iconbgsvg" mask="url(#54d5920c-26fb-4a21-b207-dad690f28289)" transform="translate(82.5,29.214561462402344)"><g data-d="container" transform="translate(0,0)"><g><rect fill="#333" fill-opacity="0" stroke-width="2" x="0" y="0" width="175" height="191.570875" class="image-rect"></rect> <svg x="0" y="0" width="175" height="191.570875" filtersec="colorsb6649659493" class="image-svg-container primary" style="overflow: visible;"><svg xmlns="http://www.w3.org/2000/svg" viewBox="-0.00278 -0.0059 107.56433 117.74915" style="overflow: visible;"><g transform="scale(1, 1) skewX(0)"><defs><linearGradient id="a7e209837-7fe6-4640-8c04-7941afc08c91" x1="-525.36" y1="-347.59" x2="-418.84" y2="-362.19" gradientTransform="matrix(-.14 1.04 -.99 -.13 -367.99 507.63)" gradientUnits="userSpaceOnUse"><stop offset="0" stop-color="#ace8ff"></stop><stop offset="1" stop-color="#94a2e4" stop-opacity="0"></stop></linearGradient><linearGradient id="b883e7270-402c-4077-a23c-97d309f09d4a" x1="-575.36" y1="-48.05" x2="-476.27" y2="-10.18" gradientTransform="matrix(-.92 .35 -.35 -.92 -437.74 217.06)" gradientUnits="userSpaceOnUse"><stop offset="0" stop-color="#ace8ff"></stop><stop offset="1" stop-color="#94a2e4"></stop></linearGradient><linearGradient id="caf4e5467-06e5-40ae-8196-0faffe5bef24" x1="-396.08" y1="-411.71" x2="-507.58" y2="-420.37" gradientTransform="matrix(.08 .96 -1 .08 -320.43 519.11)" gradientUnits="userSpaceOnUse"><stop offset="0" stop-color="#ace8ff"></stop><stop offset="1" stop-color="#94a2e4" stop-opacity="0"></stop></linearGradient></defs><path d="M.06 46.76C-2.34 0 64.74-11.07 86.62 33.27c11.51 23.34 16.08 61.66-6.33 80.59S1.67 78 .06 46.76z" opacity=".7" fill="url(#a7e209837-7fe6-4640-8c04-7941afc08c91)"></path><path d="M69.35 100.93c-45.41 19.62-86.83-26.61-57.91-63.16C25.36 20.18 65.2.24 91.71 20.92c29.8 23.25 7.97 66.91-22.36 80.01z" fill="url(#b883e7270-402c-4077-a23c-97d309f09d4a)"></path><path d="M105.91 57c12.21 45.65-46.32 69.66-75.69 30.24C14.77 66.46 2.4 29.59 18.69 6.53S97.75 26.49 105.91 57z" opacity=".51" fill="url(#caf4e5467-06e5-40ae-8196-0faffe5bef24)"></path></g></svg></svg> <!----></g></g> <g data-d="icon-text" hollow-target="textRect" transform="translate(37.5,61.3864860534668)"><g data-d="icon" class="iconsvg-imagesvg" transform="translate(0,0)"><g><!----> <svg filter="url(#colors5865367499)" x="0" y="0" width="100" height="68.79802962443156" filtersec="colorsf1010751901" class="image-svg-svg primary" style="overflow: visible;"><svg xmlns="http://www.w3.org/2000/svg" xmlns:xlink="http://www.w3.org/1999/xlink" viewBox="-0.0020003318786621094 0.00046539306640625 83.83052062988281 57.67363739013672"><path transform="translate(-6.5520000000000005 57.02766101694916)" d="M37.66 0L15.55 0Q6.55 0 6.55-9.00L6.55-9.00L6.55-51.98Q6.55-57.67 12.17-56.88L12.17-56.88Q17.71-56.09 17.50-50.54L17.50-50.54L15.55-7.85L37.66-9.58Q42.62-10.01 42.62-5.04L42.62-5.04Q42.62 0 37.66 0L37.66 0ZM50.54 0.58L50.54 0.58Q45.58-0.07 48.24-4.18L48.24-4.18L62.93-27.72L48.31-51.77Q45.72-56.09 50.76-56.74L50.76-56.74Q55.73-57.38 58.46-53.14L58.46-53.14L68.76-37.01L79.56-54.22Q81.58-57.67 85.54-56.88L85.54-56.88Q89.42-56.09 87.41-52.78L87.41-52.78L73.58-29.45L89.21-5.11Q92.52-0.07 86.47 0.50L86.47 0.50L85.82 0.50Q80.42 0.94 77.47-3.74L77.47-3.74L67.75-19.73L57.96-3.17Q55.44 1.15 50.54 0.58Z"></path></svg></svg> <defs><filter id="colors5865367499"><feColorMatrix type="matrix" values="0 0 0 0 0.19921875  0 0 0 0 0.19921875  0 0 0 0 0.19921875  0 0 0 1 0" class="icon-fecolormatrix"></feColorMatrix></filter> <filter id="colorsf1010751901"><feColorMatrix type="matrix" values="0 0 0 0 0.99609375  0 0 0 0 0.99609375  0 0 0 0 0.99609375  0 0 0 1 0" class="icon-fecolormatrix"></feColorMatrix></filter> <filter id="colorsb1157628979"><feColorMatrix type="matrix" values="0 0 0 0 0  0 0 0 0 0  0 0 0 0 0  0 0 0 1 0" class="icon-fecolormatrix"></feColorMatrix></filter></defs></g></g> <g data-d="text" transform="translate(50,75.79790496826172)"><g data-gra="path-name" fill-rule="" class="tp-name iconsvg-namesvg"><g transform="scale(1)"><g><path d="" transform="translate(0, 0)"></path></g> <!----> <!----> <!----> <!----> <!----> <!----> <!----></g></g> <!----></g></g></g><defs><filter id="a5e4e499-2b26-4c3e-86a1-71cf64168b68">
          <feColorMatrix type="matrix" values="0 0 0 0 0  0 0 0 0 0  0 0 0 0 0  0 0 0 1 0"></feColorMatrix>
          </filter><filter id="05293b48-b1f9-47b8-aef0-372e6241237a">
          <feColorMatrix type="matrix" values="0 0 0 0 0.99609375  0 0 0 0 0.99609375  0 0 0 0 0.99609375  0 0 0 1 0"></feColorMatrix>
          </filter></defs><mask id="54d5920c-26fb-4a21-b207-dad690f28289"><g data-v-6805eed4="" fill="#333" class="j-b-g-c iconbgsvg"><g data-d="container" transform="translate(0,0)"><g><rect fill="#333" fill-opacity="0" stroke-width="2" x="0" y="0" width="175" height="191.570875" class="image-rect" stroke="#000"></rect> <svg x="0" y="0" width="175" height="191.570875" filtersec="colorsb6649659493" class="image-svg-container primary" style="overflow: visible;" filter="url(#05293b48-b1f9-47b8-aef0-372e6241237a)"><svg xmlns="http://www.w3.org/2000/svg" viewBox="-0.00278 -0.0059 107.56433 117.74915" style="overflow: visible;"><g transform="scale(1, 1) skewX(0)"><defs><linearGradient id="a7e209837-7fe6-4640-8c04-7941afc08c91" x1="-525.36" y1="-347.59" x2="-418.84" y2="-362.19" gradientTransform="matrix(-.14 1.04 -.99 -.13 -367.99 507.63)" gradientUnits="userSpaceOnUse"><stop offset="0" stop-color="#ace8ff"></stop><stop offset="1" stop-color="#94a2e4" stop-opacity="0"></stop></linearGradient><linearGradient id="b883e7270-402c-4077-a23c-97d309f09d4a" x1="-575.36" y1="-48.05" x2="-476.27" y2="-10.18" gradientTransform="matrix(-.92 .35 -.35 -.92 -437.74 217.06)" gradientUnits="userSpaceOnUse"><stop offset="0" stop-color="#ace8ff"></stop><stop offset="1" stop-color="#94a2e4"></stop></linearGradient><linearGradient id="caf4e5467-06e5-40ae-8196-0faffe5bef24" x1="-396.08" y1="-411.71" x2="-507.58" y2="-420.37" gradientTransform="matrix(.08 .96 -1 .08 -320.43 519.11)" gradientUnits="userSpaceOnUse"><stop offset="0" stop-color="#ace8ff"></stop><stop offset="1" stop-color="#94a2e4" stop-opacity="0"></stop></linearGradient></defs><path d="M.06 46.76C-2.34 0 64.74-11.07 86.62 33.27c11.51 23.34 16.08 61.66-6.33 80.59S1.67 78 .06 46.76z" opacity=".7" fill="url(#a7e209837-7fe6-4640-8c04-7941afc08c91)"></path><path d="M69.35 100.93c-45.41 19.62-86.83-26.61-57.91-63.16C25.36 20.18 65.2.24 91.71 20.92c29.8 23.25 7.97 66.91-22.36 80.01z" fill="url(#b883e7270-402c-4077-a23c-97d309f09d4a)"></path><path d="M105.91 57c12.21 45.65-46.32 69.66-75.69 30.24C14.77 66.46 2.4 29.59 18.69 6.53S97.75 26.49 105.91 57z" opacity=".51" fill="url(#caf4e5467-06e5-40ae-8196-0faffe5bef24)"></path></g></svg></svg> <!----></g></g> <g data-d="icon-text" hollow-target="textRect" transform="translate(37.5,61.3864860534668)" filter="url(#a5e4e499-2b26-4c3e-86a1-71cf64168b68)"><g data-d="icon" class="iconsvg-imagesvg" transform="translate(0,0)"><g><!----> <svg filter="url(#colors5865367499)" x="0" y="0" width="100" height="68.79802962443156" filtersec="colorsf1010751901" class="image-svg-svg primary" style="overflow: visible;"><svg xmlns="http://www.w3.org/2000/svg" xmlns:xlink="http://www.w3.org/1999/xlink" viewBox="-0.0020003318786621094 0.00046539306640625 83.83052062988281 57.67363739013672" style="overflow: visible;"><path transform="translate(-6.5520000000000005 57.02766101694916)" d="M37.66 0L15.55 0Q6.55 0 6.55-9.00L6.55-9.00L6.55-51.98Q6.55-57.67 12.17-56.88L12.17-56.88Q17.71-56.09 17.50-50.54L17.50-50.54L15.55-7.85L37.66-9.58Q42.62-10.01 42.62-5.04L42.62-5.04Q42.62 0 37.66 0L37.66 0ZM50.54 0.58L50.54 0.58Q45.58-0.07 48.24-4.18L48.24-4.18L62.93-27.72L48.31-51.77Q45.72-56.09 50.76-56.74L50.76-56.74Q55.73-57.38 58.46-53.14L58.46-53.14L68.76-37.01L79.56-54.22Q81.58-57.67 85.54-56.88L85.54-56.88Q89.42-56.09 87.41-52.78L87.41-52.78L73.58-29.45L89.21-5.11Q92.52-0.07 86.47 0.50L86.47 0.50L85.82 0.50Q80.42 0.94 77.47-3.74L77.47-3.74L67.75-19.73L57.96-3.17Q55.44 1.15 50.54 0.58Z"></path></svg></svg> <defs><filter id="colors5865367499"><feColorMatrix type="matrix" values="0 0 0 0 0.19921875  0 0 0 0 0.19921875  0 0 0 0 0.19921875  0 0 0 1 0" class="icon-fecolormatrix"></feColorMatrix></filter> <filter id="colorsf1010751901"><feColorMatrix type="matrix" values="0 0 0 0 0.99609375  0 0 0 0 0.99609375  0 0 0 0 0.99609375  0 0 0 1 0" class="icon-fecolormatrix"></feColorMatrix></filter> <filter id="colorsb1157628979"><feColorMatrix type="matrix" values="0 0 0 0 0  0 0 0 0 0  0 0 0 0 0  0 0 0 1 0" class="icon-fecolormatrix"></feColorMatrix></filter></defs></g></g> <g data-d="text" transform="translate(50,75.79790496826172)"><g data-gra="path-name" fill-rule="" class="tp-name iconsvg-namesvg"><g transform="scale(1)"><g><path d="" transform="translate(0, 0)"></path></g> <!----> <!----> <!----> <!----> <!----> <!----> <!----></g></g> <!----></g></g></g></mask><defs v-gra="od"></defs></svg>