<svg data-v-6805eed4="" version="1.0" xmlns="http://www.w3.org/2000/svg" xmlns:xlink="http://www.w3.org/1999/xlink" width="100%" height="100%" viewBox="0 0 340.000000 250.000000" preserveAspectRatio="xMidYMid meet" color-interpolation-filters="sRGB" style="margin: auto;">   <g data-v-6805eed4="" fill="#a18cd1" class="j-b-g-c iconbgsvg" mask="url(#e5f130d1-a99f-4bed-aace-75039ad2094d)" transform="translate(-11.999999923134197,18.60955810546875)"><g data-d="container" transform="translate(0,0)"><g><rect fill="#a18cd1" fill-opacity="0" stroke-width="2" x="0" y="0" width="364.00000000000006" height="212.78088000000008" class="image-rect"></rect> <svg x="0" y="0" width="364.00000000000006" height="212.78088000000008" filtersec="colorsb5969832318" class="image-svg-container primary" style="overflow: visible;"><svg xmlns="http://www.w3.org/2000/svg" xlink="http://www.w3.org/1999/xlink" viewBox="0.00735 -0.00114 152.15543 88.94427" style="overflow: visible;"><g transform="scale(1, 1) skewX(0)"><defs><linearGradient id="a8d4f3348-c6e4-4dd7-9dff-772ddf265520" x1="237.83" y1="-85.35" x2="312.11" y2="81.39" gradientTransform="matrix(.41 .91 .91 -.41 -33.81 -206.74)" gradientUnits="userSpaceOnUse"><stop offset="0" stop-color="#ffdcdc"></stop><stop offset="1" stop-color="#afa2c6" stop-opacity="0"></stop></linearGradient><linearGradient id="bb90a157a-9e82-44e9-be4b-1fd3c8256670" x1="8.71" y1="39.05" x2="139.85" y2="43.56" gradientTransform="rotate(-1.97 77.715 65.043)" gradientUnits="userSpaceOnUse"><stop offset="0" stop-color="#afa2c6"></stop><stop offset="1" stop-color="#ffdcdc"></stop></linearGradient><linearGradient id="cbdd49ea5-16e0-46d3-af66-13be6408ce73" x1="235.77" y1="-236.21" x2="267.16" y2="-61.61" gradientTransform="rotate(100.19 82.43 -127.333)" href="#a8d4f3348-c6e4-4dd7-9dff-772ddf265520"></linearGradient></defs><path d="M81.47 7.26c-29-10.44-51.06-6.07-64.32 8.68s-17.77 52.55 8 68.38C48.59 98.68 132.48 77.26 148.37 52c8.57-13.58 8.69-17.57-66.9-44.74z" fill="url(#a8d4f3348-c6e4-4dd7-9dff-772ddf265520)"></path><path d="M28.35 79.9C4.68 73.47 1.17 41.82 19.61 19.44 40.33-5.7 85.9-4.68 111.09 12.35 140.26 32.07 147 54.67 129.53 66c-10.24 6.68-64.99 23.73-101.18 13.9z" opacity=".8" fill="url(#bb90a157a-9e82-44e9-be4b-1fd3c8256670)"></path><path d="M41.6 11.78c33.9-14.5 62.32-13.16 80.21-2.08 21 13 29.3 56.89 4.53 71.91C117.6 86.91 17.87 84.78 11.4 78 0 66.05-17 36.85 41.6 11.78z" fill="url(#cbdd49ea5-16e0-46d3-af66-13be6408ce73)"></path></g></svg></svg> <!----></g><rect v-gra="id" width="376" height="224.7808837890625" transform="translate(-6, -6)" style="pointer-events:none;" fill="url(#zRhr47GRvuH98iSsMfVSp)"></rect></g> <g data-d="icon-text" hollow-target="textRect" transform="translate(66,30.088706970214844)"><g data-d="icon" class="iconsvg-imagesvg" transform="translate(0,0)" mask="url(#ef00fe26-1162-40ba-9307-0da027c41fea)"><g><!----> <svg filter="url(#colors5492828930)" x="0" y="0" width="216.0000000000001" height="148.60374398877224" filtersec="colorsf2524851956" class="image-svg-svg primary" style="overflow: visible;"><svg xmlns="http://www.w3.org/2000/svg" xmlns:xlink="http://www.w3.org/1999/xlink" viewBox="-0.0020003318786621094 0.00046539306640625 83.83052062988281 57.67363739013672"><path transform="translate(-6.5520000000000005 57.02766101694916)" d="M37.66 0L15.55 0Q6.55 0 6.55-9.00L6.55-9.00L6.55-51.98Q6.55-57.67 12.17-56.88L12.17-56.88Q17.71-56.09 17.50-50.54L17.50-50.54L15.55-7.85L37.66-9.58Q42.62-10.01 42.62-5.04L42.62-5.04Q42.62 0 37.66 0L37.66 0ZM50.54 0.58L50.54 0.58Q45.58-0.07 48.24-4.18L48.24-4.18L62.93-27.72L48.31-51.77Q45.72-56.09 50.76-56.74L50.76-56.74Q55.73-57.38 58.46-53.14L58.46-53.14L68.76-37.01L79.56-54.22Q81.58-57.67 85.54-56.88L85.54-56.88Q89.42-56.09 87.41-52.78L87.41-52.78L73.58-29.45L89.21-5.11Q92.52-0.07 86.47 0.50L86.47 0.50L85.82 0.50Q80.42 0.94 77.47-3.74L77.47-3.74L67.75-19.73L57.96-3.17Q55.44 1.15 50.54 0.58Z"></path></svg></svg> <defs><filter id="colors5492828930"><feColorMatrix type="matrix" values="0 0 0 0 0.19921875  0 0 0 0 0.19921875  0 0 0 0 0.19921875  0 0 0 1 0" class="icon-fecolormatrix"></feColorMatrix></filter> <filter id="colorsf2524851956"><feColorMatrix type="matrix" values="0 0 0 0 0.99609375  0 0 0 0 0.99609375  0 0 0 0 0.99609375  0 0 0 1 0" class="icon-fecolormatrix"></feColorMatrix></filter> <filter id="colorsb3109385388"><feColorMatrix type="matrix" values="0 0 0 0 0  0 0 0 0 0  0 0 0 0 0  0 0 0 1 0" class="icon-fecolormatrix"></feColorMatrix></filter></defs></g><rect v-gra="id" width="228" height="160.6034698486328" transform="translate(-6, -6)" style="pointer-events:none;" fill="url(#zRhr47GRvuH98iSsMfVSp)"></rect></g> <g data-d="text" transform="translate(108,155.6034698486328)"><g data-gra="path-name" fill-rule="" class="tp-name iconsvg-namesvg" fill="url(#fb809f26-7c07-44fd-8830-4430d66b9580)"><g transform="scale(1)"><g><path d="" transform="translate(0, 0)"></path></g> <!----> <!----> <!----> <!----> <!----> <!----> <!----></g></g> <!----></g></g></g><defs><filter id="f76bfe44-3973-4eb8-9433-917feda3fa7f">
          <feColorMatrix type="matrix" values="0 0 0 0 0  0 0 0 0 0  0 0 0 0 0  0 0 0 1 0"></feColorMatrix>
          </filter><filter id="21fae6f9-7af0-4cbe-981c-b6c6b7d3bc30">
          <feColorMatrix type="matrix" values="0 0 0 0 0.99609375  0 0 0 0 0.99609375  0 0 0 0 0.99609375  0 0 0 1 0"></feColorMatrix>
          </filter></defs><mask id="487aa3e5-438b-41a0-801d-81714c73fcbe"><g data-v-6805eed4="" fill="#a18cd1" class="j-b-g-c iconbgsvg"><g data-d="container" transform="translate(0,0)"><g><rect fill="#a18cd1" fill-opacity="0" stroke-width="2" x="0" y="0" width="364.00000000000006" height="212.78088000000008" class="image-rect" stroke="#000"></rect> <svg x="0" y="0" width="364.00000000000006" height="212.78088000000008" filtersec="colorsb5969832318" class="image-svg-container primary" style="overflow: visible;" filter="url(#21fae6f9-7af0-4cbe-981c-b6c6b7d3bc30)"><svg xmlns="http://www.w3.org/2000/svg" xlink="http://www.w3.org/1999/xlink" viewBox="0.00735 -0.00114 152.15543 88.94427" style="overflow: visible;"><g transform="scale(1, 1) skewX(0)"><defs><linearGradient id="a8d4f3348-c6e4-4dd7-9dff-772ddf265520" x1="237.83" y1="-85.35" x2="312.11" y2="81.39" gradientTransform="matrix(.41 .91 .91 -.41 -33.81 -206.74)" gradientUnits="userSpaceOnUse"><stop offset="0" stop-color="#ffdcdc"></stop><stop offset="1" stop-color="#afa2c6" stop-opacity="0"></stop></linearGradient><linearGradient id="bb90a157a-9e82-44e9-be4b-1fd3c8256670" x1="8.71" y1="39.05" x2="139.85" y2="43.56" gradientTransform="rotate(-1.97 77.715 65.043)" gradientUnits="userSpaceOnUse"><stop offset="0" stop-color="#afa2c6"></stop><stop offset="1" stop-color="#ffdcdc"></stop></linearGradient><linearGradient id="cbdd49ea5-16e0-46d3-af66-13be6408ce73" x1="235.77" y1="-236.21" x2="267.16" y2="-61.61" gradientTransform="rotate(100.19 82.43 -127.333)" href="#a8d4f3348-c6e4-4dd7-9dff-772ddf265520"></linearGradient></defs><path d="M81.47 7.26c-29-10.44-51.06-6.07-64.32 8.68s-17.77 52.55 8 68.38C48.59 98.68 132.48 77.26 148.37 52c8.57-13.58 8.69-17.57-66.9-44.74z" fill="url(#a8d4f3348-c6e4-4dd7-9dff-772ddf265520)"></path><path d="M28.35 79.9C4.68 73.47 1.17 41.82 19.61 19.44 40.33-5.7 85.9-4.68 111.09 12.35 140.26 32.07 147 54.67 129.53 66c-10.24 6.68-64.99 23.73-101.18 13.9z" opacity=".8" fill="url(#bb90a157a-9e82-44e9-be4b-1fd3c8256670)"></path><path d="M41.6 11.78c33.9-14.5 62.32-13.16 80.21-2.08 21 13 29.3 56.89 4.53 71.91C117.6 86.91 17.87 84.78 11.4 78 0 66.05-17 36.85 41.6 11.78z" fill="url(#cbdd49ea5-16e0-46d3-af66-13be6408ce73)"></path></g></svg></svg> <!----></g></g> <g data-d="icon-text" hollow-target="textRect" transform="translate(66,30.088706970214844)" filter="url(#f76bfe44-3973-4eb8-9433-917feda3fa7f)"><g data-d="icon" class="iconsvg-imagesvg" transform="translate(0,0)"><g><!----> <svg filter="url(#colors5492828930)" x="0" y="0" width="216.0000000000001" height="148.60374398877224" filtersec="colorsf2524851956" class="image-svg-svg primary" style="overflow: visible;"><svg xmlns="http://www.w3.org/2000/svg" xmlns:xlink="http://www.w3.org/1999/xlink" viewBox="-0.0020003318786621094 0.00046539306640625 83.83052062988281 57.67363739013672" style="overflow: visible;"><path transform="translate(-6.5520000000000005 57.02766101694916)" d="M37.66 0L15.55 0Q6.55 0 6.55-9.00L6.55-9.00L6.55-51.98Q6.55-57.67 12.17-56.88L12.17-56.88Q17.71-56.09 17.50-50.54L17.50-50.54L15.55-7.85L37.66-9.58Q42.62-10.01 42.62-5.04L42.62-5.04Q42.62 0 37.66 0L37.66 0ZM50.54 0.58L50.54 0.58Q45.58-0.07 48.24-4.18L48.24-4.18L62.93-27.72L48.31-51.77Q45.72-56.09 50.76-56.74L50.76-56.74Q55.73-57.38 58.46-53.14L58.46-53.14L68.76-37.01L79.56-54.22Q81.58-57.67 85.54-56.88L85.54-56.88Q89.42-56.09 87.41-52.78L87.41-52.78L73.58-29.45L89.21-5.11Q92.52-0.07 86.47 0.50L86.47 0.50L85.82 0.50Q80.42 0.94 77.47-3.74L77.47-3.74L67.75-19.73L57.96-3.17Q55.44 1.15 50.54 0.58Z"></path></svg></svg> <defs><filter id="colors5492828930"><feColorMatrix type="matrix" values="0 0 0 0 0.19921875  0 0 0 0 0.19921875  0 0 0 0 0.19921875  0 0 0 1 0" class="icon-fecolormatrix"></feColorMatrix></filter> <filter id="colorsf2524851956"><feColorMatrix type="matrix" values="0 0 0 0 0.99609375  0 0 0 0 0.99609375  0 0 0 0 0.99609375  0 0 0 1 0" class="icon-fecolormatrix"></feColorMatrix></filter> <filter id="colorsb3109385388"><feColorMatrix type="matrix" values="0 0 0 0 0  0 0 0 0 0  0 0 0 0 0  0 0 0 1 0" class="icon-fecolormatrix"></feColorMatrix></filter></defs></g></g> <g data-d="text" transform="translate(108,155.6034698486328)"><g data-gra="path-name" fill-rule="" class="tp-name iconsvg-namesvg"><g transform="scale(1)"><g><path d="" transform="translate(0, 0)"></path></g> <!----> <!----> <!----> <!----> <!----> <!----> <!----></g></g> <!----></g></g></g></mask><defs v-gra="od"><linearGradient x1="0" y1="1" x2="0" y2="0" id="fb809f26-7c07-44fd-8830-4430d66b9580"><stop offset="0%" stop-color="#a18cd1"></stop><stop offset="100%" stop-color="#fbc2eb"></stop></linearGradient><filter id="42443b3f1de60f6b6fd3b6a9844b4764" filterUnits="objectBoundingBox"><feColorMatrix type="matrix" values="0 0 0 0 0.99609375  0 0 0 0 0.99609375  0 0 0 0 0.99609375  0 0 0 1 0"></feColorMatrix></filter></defs><mask v-gra="im" id="ef00fe26-1162-40ba-9307-0da027c41fea"><g data-d="icon" class="iconsvg-imagesvg" filter="url(#9ddb4577-a9ef-4811-8e8f-8a6d233cc120)"><g><!----> <svg filter="url(#colors5492828930)" x="0" y="0" width="216.0000000000001" height="148.60374398877224" filtersec="colorsf2524851956" class="image-svg-svg primary" style="overflow: visible;"><svg xmlns="http://www.w3.org/2000/svg" xmlns:xlink="http://www.w3.org/1999/xlink" viewBox="-0.0020003318786621094 0.00046539306640625 83.83052062988281 57.67363739013672"><path transform="translate(-6.5520000000000005 57.02766101694916)" d="M37.66 0L15.55 0Q6.55 0 6.55-9.00L6.55-9.00L6.55-51.98Q6.55-57.67 12.17-56.88L12.17-56.88Q17.71-56.09 17.50-50.54L17.50-50.54L15.55-7.85L37.66-9.58Q42.62-10.01 42.62-5.04L42.62-5.04Q42.62 0 37.66 0L37.66 0ZM50.54 0.58L50.54 0.58Q45.58-0.07 48.24-4.18L48.24-4.18L62.93-27.72L48.31-51.77Q45.72-56.09 50.76-56.74L50.76-56.74Q55.73-57.38 58.46-53.14L58.46-53.14L68.76-37.01L79.56-54.22Q81.58-57.67 85.54-56.88L85.54-56.88Q89.42-56.09 87.41-52.78L87.41-52.78L73.58-29.45L89.21-5.11Q92.52-0.07 86.47 0.50L86.47 0.50L85.82 0.50Q80.42 0.94 77.47-3.74L77.47-3.74L67.75-19.73L57.96-3.17Q55.44 1.15 50.54 0.58Z"></path></svg></svg> <defs><filter id="colors5492828930"><feColorMatrix type="matrix" values="0 0 0 0 0.19921875  0 0 0 0 0.19921875  0 0 0 0 0.19921875  0 0 0 1 0" class="icon-fecolormatrix"></feColorMatrix></filter> <filter id="colorsf2524851956"><feColorMatrix type="matrix" values="0 0 0 0 0.99609375  0 0 0 0 0.99609375  0 0 0 0 0.99609375  0 0 0 1 0" class="icon-fecolormatrix"></feColorMatrix></filter> <filter id="colorsb3109385388"><feColorMatrix type="matrix" values="0 0 0 0 0  0 0 0 0 0  0 0 0 0 0  0 0 0 1 0" class="icon-fecolormatrix"></feColorMatrix></filter></defs></g></g></mask><defs v-gra="id"><filter id="9ddb4577-a9ef-4811-8e8f-8a6d233cc120" filterUnits="userSpaceOnUse"><feColorMatrix type="matrix" values="0 0 0 0 0.99609375  0 0 0 0 0.99609375  0 0 0 0 0.99609375  0 0 0 1 0"></feColorMatrix></filter><linearGradient x1="0" y1="1" x2="0" y2="0" id="zRhr47GRvuH98iSsMfVSp"><stop offset="0%" stop-color="#a18cd1"></stop><stop offset="100%" stop-color="#fbc2eb"></stop></linearGradient><filter id="42443b3f1de60f6b6fd3b6a9844b4764" filterUnits="objectBoundingBox"><feColorMatrix type="matrix" values="0 0 0 0 0.99609375  0 0 0 0 0.99609375  0 0 0 0 0.99609375  0 0 0 1 0"></feColorMatrix></filter></defs><mask v-gra="im" id="e5f130d1-a99f-4bed-aace-75039ad2094d"><g data-v-6805eed4="" fill="#a18cd1" class="j-b-g-c iconbgsvg" mask="url(#487aa3e5-438b-41a0-801d-81714c73fcbe)" filter="url(#9ddb4577-a9ef-4811-8e8f-8a6d233cc120)"><g data-d="container" transform="translate(0,0)"><g><rect fill="#a18cd1" fill-opacity="0" stroke-width="2" x="0" y="0" width="364.00000000000006" height="212.78088000000008" class="image-rect"></rect> <svg x="0" y="0" width="364.00000000000006" height="212.78088000000008" filtersec="colorsb5969832318" class="image-svg-container primary" style="overflow: visible;"><svg xmlns="http://www.w3.org/2000/svg" xlink="http://www.w3.org/1999/xlink" viewBox="0.00735 -0.00114 152.15543 88.94427" style="overflow: visible;"><g transform="scale(1, 1) skewX(0)"><defs><linearGradient id="a8d4f3348-c6e4-4dd7-9dff-772ddf265520" x1="237.83" y1="-85.35" x2="312.11" y2="81.39" gradientTransform="matrix(.41 .91 .91 -.41 -33.81 -206.74)" gradientUnits="userSpaceOnUse"><stop offset="0" stop-color="#ffdcdc"></stop><stop offset="1" stop-color="#afa2c6" stop-opacity="0"></stop></linearGradient><linearGradient id="bb90a157a-9e82-44e9-be4b-1fd3c8256670" x1="8.71" y1="39.05" x2="139.85" y2="43.56" gradientTransform="rotate(-1.97 77.715 65.043)" gradientUnits="userSpaceOnUse"><stop offset="0" stop-color="#afa2c6"></stop><stop offset="1" stop-color="#ffdcdc"></stop></linearGradient><linearGradient id="cbdd49ea5-16e0-46d3-af66-13be6408ce73" x1="235.77" y1="-236.21" x2="267.16" y2="-61.61" gradientTransform="rotate(100.19 82.43 -127.333)" href="#a8d4f3348-c6e4-4dd7-9dff-772ddf265520"></linearGradient></defs><path d="M81.47 7.26c-29-10.44-51.06-6.07-64.32 8.68s-17.77 52.55 8 68.38C48.59 98.68 132.48 77.26 148.37 52c8.57-13.58 8.69-17.57-66.9-44.74z" fill="url(#a8d4f3348-c6e4-4dd7-9dff-772ddf265520)"></path><path d="M28.35 79.9C4.68 73.47 1.17 41.82 19.61 19.44 40.33-5.7 85.9-4.68 111.09 12.35 140.26 32.07 147 54.67 129.53 66c-10.24 6.68-64.99 23.73-101.18 13.9z" opacity=".8" fill="url(#bb90a157a-9e82-44e9-be4b-1fd3c8256670)"></path><path d="M41.6 11.78c33.9-14.5 62.32-13.16 80.21-2.08 21 13 29.3 56.89 4.53 71.91C117.6 86.91 17.87 84.78 11.4 78 0 66.05-17 36.85 41.6 11.78z" fill="url(#cbdd49ea5-16e0-46d3-af66-13be6408ce73)"></path></g></svg></svg> <!----></g></g> <g data-d="icon-text" hollow-target="textRect" transform="translate(66,30.088706970214844)"><g data-d="icon" class="iconsvg-imagesvg" transform="translate(0,0)"><g><!----> <svg x="0" y="0" width="216.0000000000001" height="148.60374398877224" filtersec="colorsf2524851956" class="image-svg-svg primary" style="overflow: visible;"><svg xmlns="http://www.w3.org/2000/svg" xmlns:xlink="http://www.w3.org/1999/xlink" viewBox="-0.0020003318786621094 0.00046539306640625 83.83052062988281 57.67363739013672"><path transform="translate(-6.5520000000000005 57.02766101694916)" d="M37.66 0L15.55 0Q6.55 0 6.55-9.00L6.55-9.00L6.55-51.98Q6.55-57.67 12.17-56.88L12.17-56.88Q17.71-56.09 17.50-50.54L17.50-50.54L15.55-7.85L37.66-9.58Q42.62-10.01 42.62-5.04L42.62-5.04Q42.62 0 37.66 0L37.66 0ZM50.54 0.58L50.54 0.58Q45.58-0.07 48.24-4.18L48.24-4.18L62.93-27.72L48.31-51.77Q45.72-56.09 50.76-56.74L50.76-56.74Q55.73-57.38 58.46-53.14L58.46-53.14L68.76-37.01L79.56-54.22Q81.58-57.67 85.54-56.88L85.54-56.88Q89.42-56.09 87.41-52.78L87.41-52.78L73.58-29.45L89.21-5.11Q92.52-0.07 86.47 0.50L86.47 0.50L85.82 0.50Q80.42 0.94 77.47-3.74L77.47-3.74L67.75-19.73L57.96-3.17Q55.44 1.15 50.54 0.58Z"></path></svg></svg> <defs><filter id="colors5492828930"><feColorMatrix type="matrix" values="0 0 0 0 0.19921875  0 0 0 0 0.19921875  0 0 0 0 0.19921875  0 0 0 1 0" class="icon-fecolormatrix"></feColorMatrix></filter> <filter id="colorsf2524851956"><feColorMatrix type="matrix" values="0 0 0 0 0.99609375  0 0 0 0 0.99609375  0 0 0 0 0.99609375  0 0 0 1 0" class="icon-fecolormatrix"></feColorMatrix></filter> <filter id="colorsb3109385388"><feColorMatrix type="matrix" values="0 0 0 0 0  0 0 0 0 0  0 0 0 0 0  0 0 0 1 0" class="icon-fecolormatrix"></feColorMatrix></filter></defs></g></g> <g data-d="text" transform="translate(108,155.6034698486328)"><g data-gra="path-name" fill-rule="" class="tp-name iconsvg-namesvg" fill="url(#fb809f26-7c07-44fd-8830-4430d66b9580)"><g transform="scale(1)"><g><path d="" transform="translate(0, 0)"></path></g> <!----> <!----> <!----> <!----> <!----> <!----> <!----></g></g> <!----></g></g></g></mask></svg>